<svg xmlns="http://www.w3.org/2000/svg" version="1.1" xmlns:xlink="http://www.w3.org/1999/xlink" xmlns:svgjs="http://svgjs.dev/svgjs" width="1000" height="1000" viewBox="0 0 1000 1000"><rect width="1000" height="1000" fill="#000000"></rect><g transform="matrix(0.7,0,0,0.7,149.57575757575756,388.19071482312853)"><svg viewBox="0 0 396 127" data-background-color="#161618" preserveAspectRatio="xMidYMid meet" height="320" width="1000" xmlns="http://www.w3.org/2000/svg" xmlns:xlink="http://www.w3.org/1999/xlink"><g id="tight-bounds" transform="matrix(1,0,0,1,0.2400000000000091,-0.10812849347018982)"><svg viewBox="0 0 395.52 127.21615997092579" height="127.21615997092579" width="395.52"><g><svg viewBox="0 0 642.3704895545632 206.61384243470675" height="127.21615997092579" width="395.52"><g transform="matrix(1,0,0,1,246.85048955456324,60.697076167606184)"><svg viewBox="0 0 395.52 85.21969009949439" height="85.21969009949439" width="395.52"><g id="textblocktransform"><svg viewBox="0 0 395.52 85.21969009949439" height="85.21969009949439" width="395.52" id="textblock"><g><svg viewBox="0 0 395.52 85.21969009949439" height="85.21969009949439" width="395.52"><g transform="matrix(1,0,0,1,0,0)"><svg width="395.52" viewBox="0 -33.38999938964844 154.97000122070312 33.38999938964844" height="85.21969009949439" data-palette-color="#ffffff"><path d="M13.3-24.37L9.38-14.05 20.12-14.05 16.25-24.37Q15.47-26.49 14.71-29.17L14.71-29.17Q14.26-27.1 13.3-24.37L13.3-24.37ZM16.41-33.39L29.47 0 25.48 0 21.33-10.57 8.01-10.57 3.92 0 0 0 13.14-33.39 16.41-33.39ZM56.29-28.97Q60.59-24.67 60.59-16.68 60.59-8.7 56.13-4.35 51.67 0 43.25 0L43.25 0 34.05 0 34.05-33.27 44.23-33.27Q51.99-33.27 56.29-28.97ZM37.91-3.34L42.62-3.34Q49.52-3.34 53.01-6.74 56.49-10.14 56.49-16.72 56.49-23.31 53.23-26.61 49.97-29.9 43.53-29.9L43.53-29.9 37.91-29.9 37.91-3.34ZM71.89-33.27L71.89 0 68.02 0 68.02-33.27 71.89-33.27ZM101.79-29.83L91.25-29.83 91.25 0 87.38 0 87.38-29.83 76.84-29.83 76.84-33.27 101.79-33.27 101.79-29.83ZM117.2-12.89L117.2 0 113.29 0 113.29-12.71 102.21-33.27 106.44-33.27 115.26-16.63 124.13-33.27 128.3-33.27 117.2-12.89ZM138.79-24.37L134.87-14.05 145.61-14.05 141.75-24.37Q140.96-26.49 140.2-29.17L140.2-29.17Q139.75-27.1 138.79-24.37L138.79-24.37ZM141.9-33.39L154.97 0 150.97 0 146.83-10.57 133.51-10.57 129.41 0 125.49 0 138.64-33.39 141.9-33.39Z" opacity="1" transform="matrix(1,0,0,1,0,0)" fill="#ffffff" class="wordmark-text-0" data-fill-palette-color="primary" id="text-0"></path></svg></g></svg></g></svg></g></svg></g><g><svg viewBox="0 0 206.61384243470675 206.61384243470675" height="206.61384243470675" width="206.61384243470675"><g><svg></svg></g><g id="icon-0"><svg viewBox="0 0 206.61384243470675 206.61384243470675" height="206.61384243470675" width="206.61384243470675"><g><path d="M0 103.307c0-57.055 46.252-103.307 103.307-103.307 57.055 0 103.307 46.252 103.307 103.307 0 57.055-46.252 103.307-103.307 103.307-57.055 0-103.307-46.252-103.307-103.307zM103.307 198.929c52.81 0 95.622-42.811 95.622-95.622 0-52.81-42.811-95.622-95.622-95.622-52.81 0-95.622 42.811-95.622 95.622 0 52.81 42.811 95.622 95.622 95.622z" data-fill-palette-color="accent" fill="#ffffff" stroke="transparent"></path></g><g transform="matrix(1,0,0,1,44.33410704244709,44.33410704244709)"><svg viewBox="0 0 117.94562834981258 117.94562834981258" height="117.94562834981258" width="117.94562834981258"><g><svg xmlns="http://www.w3.org/2000/svg" xmlns:xlink="http://www.w3.org/1999/xlink" version="1.1" x="0" y="0" viewBox="22.48999786376953 23.4949951171875 54.720001220703125 54.720001220703125" style="enable-background:new 0 0 100 100;" xml:space="preserve" height="117.94562834981258" width="117.94562834981258" class="icon-s-0" data-fill-palette-color="accent" id="s-0"><g fill="#ffffff" data-fill-palette-color="accent"><path d="M49.85 78.215c-15.087 0-27.36-12.274-27.36-27.36s12.273-27.36 27.36-27.36 27.36 12.274 27.36 27.36S64.937 78.215 49.85 78.215zM49.85 25.494c-13.983 0-25.36 11.376-25.36 25.36s11.377 25.36 25.36 25.36 25.36-11.376 25.36-25.36S63.834 25.494 49.85 25.494z" fill="#ffffff" data-fill-palette-color="accent"></path><g fill="#ffffff" data-fill-palette-color="accent"><path d="M49.494 66.314c-6.172 0-11.928-0.256-16.207-0.722-6.862-0.747-7.788-1.76-7.788-2.654 0-0.276 0.224-0.5 0.5-0.5 0.274 0 0.498 0.222 0.5 0.496 0.274 0.96 7.765 2.38 22.995 2.38 15.244 0 22.734-1.422 22.997-2.382 0-0.276 0.224-0.497 0.499-0.497 0.276 0 0.5 0.227 0.5 0.503C73.49 66.071 55.124 66.314 49.494 66.314z" fill="#ffffff" data-fill-palette-color="accent"></path><path d="M75.974 51.355H23.016c-0.276 0-0.5-0.224-0.5-0.5s0.224-0.5 0.5-0.5h52.958c0.276 0 0.5 0.224 0.5 0.5S76.25 51.355 75.974 51.355z" fill="#ffffff" data-fill-palette-color="accent"></path><path d="M25.995 39.291c-0.276 0-0.496-0.244-0.496-0.52 0-2.788 16.781-3.089 23.995-3.089 7.215 0 23.996 0.301 23.996 3.089 0 0.276-0.224 0.5-0.5 0.5s-0.5-0.224-0.5-0.5c-0.445-0.844-7.881-2.089-22.996-2.089-15.114 0-22.55 1.246-23.003 2.13C26.491 39.088 26.271 39.291 25.995 39.291z" fill="#ffffff" data-fill-palette-color="accent"></path></g><g fill="#ffffff" data-fill-palette-color="accent"><path d="M37.411 74.85c-4.002 0-4.204-19.989-4.204-23.996 0-6.178 0.33-11.939 0.931-16.223 0.977-6.967 2.336-7.773 3.273-7.773 0.276 0 0.5 0.224 0.5 0.5s-0.224 0.5-0.5 0.5c-0.135 0-1.342 0.194-2.283 6.912-0.594 4.239-0.921 9.951-0.921 16.084 0 14.204 1.663 22.996 3.204 22.996 0.276 0 0.5 0.224 0.5 0.5S37.687 74.85 37.411 74.85z" fill="#ffffff" data-fill-palette-color="accent"></path><path d="M49.494 77.834c-0.276 0-0.5-0.224-0.5-0.5V24.376c0-0.276 0.224-0.5 0.5-0.5s0.5 0.224 0.5 0.5v52.958C49.994 77.61 49.77 77.834 49.494 77.834z" fill="#ffffff" data-fill-palette-color="accent"></path><path d="M61.578 74.85c-0.276 0-0.5-0.224-0.5-0.5s0.224-0.5 0.5-0.5c0.657 0 1.695-1.811 2.454-6.916 0.631-4.238 0.978-9.948 0.978-16.08 0-14.204-1.781-22.996-3.432-22.996-0.276 0-0.5-0.224-0.5-0.5s0.224-0.5 0.5-0.5c4.218 0 4.432 19.989 4.432 23.996 0 6.179-0.351 11.942-0.988 16.227C63.985 74.045 62.56 74.85 61.578 74.85z" fill="#ffffff" data-fill-palette-color="accent"></path></g></g></svg></g></svg></g></svg></g></svg></g></svg></g><defs></defs></svg><rect width="395.52" height="127.21615997092579" fill="none" stroke="none" visibility="hidden"></rect></g></svg></g></svg>